<!-- Generated by IcoMoon.io -->
<svg version="1.1" xmlns="http://www.w3.org/2000/svg" width="32" height="32" viewBox="0 0 32 32">
<path d="M15.667 9.333c-1.473 0-2.667 1.194-2.667 2.667v8c0 1.473 1.194 2.667 2.667 2.667h2.667c1.473 0 2.667-1.194 2.667-2.667v-8c0-1.473-1.194-2.667-2.667-2.667h-2.667zM15.667 12h2.667v8h-2.667v-8zM22.333 14v2h4v2h-2c-1.105 0-2 0.895-2 2v4h6v-2h-4v-2h2c1.105 0 2-0.895 2-2v-2c0-1.105-0.895-2-2-2z"></path>
<path d="M3.667 9.333v13.333h2.667v-6.667l2.667 6.667h2.667v-13.333h-2.667v6.667l-2.667-6.667z"></path>
</svg>
