<!-- Generated by IcoMoon.io -->
<svg version="1.1" xmlns="http://www.w3.org/2000/svg" width="24" height="24" viewBox="0 0 24 24">
<path fill="#e8eaed" d="M7.074 14.581c-0.283 0-0.521-0.096-0.712-0.288s-0.288-0.429-0.288-0.713v-4c0-0.283 0.096-0.521 0.288-0.713s0.429-0.288 0.712-0.288h3c0.283 0 0.521 0.096 0.713 0.288s0.288 0.429 0.288 0.713v4c0 0.283-0.096 0.521-0.288 0.713s-0.429 0.288-0.713 0.288zM7.574 13.081h2v-3h-2z"></path>
<path fill="#e8eaed" d="M13.074 17.581v-1.201h3.409v-1.201h-3.409v-1.201h3.409v-1.201h-3.409v-1.201h3.409c0.375 0 0.696 0.118 0.963 0.353s0.401 0.518 0.401 0.848v0.901c0 0.25-0.099 0.463-0.298 0.638s-0.44 0.263-0.724 0.263c0.284 0 0.526 0.088 0.724 0.263s0.298 0.388 0.298 0.638v0.901c0 0.33-0.134 0.613-0.401 0.848s-0.588 0.353-0.963 0.353z"></path>
</svg>
