<svg version="1.1" xmlns="http://www.w3.org/2000/svg" width="32" height="32" viewBox="0 0 32 32">
<path fill="#e8eaed" d="M9.433 19.441c-0.378 0-0.694-0.128-0.95-0.383s-0.383-0.572-0.383-0.95v-5.333c0-0.378 0.128-0.694 0.383-0.95s0.572-0.383 0.95-0.383h4c0.378 0 0.694 0.128 0.95 0.383s0.383 0.572 0.383 0.95v5.333c0 0.378-0.128 0.694-0.383 0.95s-0.572 0.383-0.95 0.383zM10.099 17.441h2.667v-4h-2.667z"></path>
<path fill="#e8eaed" d="M17.433 23.441v-1.602h4.546v-1.602h-4.546v-1.602h4.546v-1.602h-4.546v-1.602h4.546c0.5 0 0.928 0.157 1.284 0.47s0.534 0.691 0.534 1.131v1.201c0 0.334-0.133 0.617-0.398 0.851s-0.587 0.35-0.966 0.35c0.379 0 0.701 0.117 0.966 0.35s0.398 0.517 0.398 0.851v1.201c0 0.44-0.178 0.818-0.534 1.131s-0.784 0.471-1.284 0.471z"></path>
</svg>
