<!-- Generated by IcoMoon.io -->
<svg version="1.1" xmlns="http://www.w3.org/2000/svg" width="24" height="24" viewBox="0 0 24 24">
<path fill="#e8eaed" d="M11 15c-0.283 0-0.521-0.096-0.712-0.288s-0.288-0.429-0.288-0.713v-4c0-0.283 0.096-0.521 0.288-0.713s0.429-0.288 0.712-0.288h3c0.283 0 0.521 0.096 0.712 0.288s0.288 0.429 0.288 0.713v4c0 0.283-0.096 0.521-0.288 0.713s-0.429 0.288-0.712 0.288zM11.5 13.5h2v-3h-2zM17 18v-2.5c0-0.283 0.096-0.521 0.288-0.712s0.429-0.288 0.712-0.288h2v-1h-3v-1.5h3.5c0.283 0 0.521 0.096 0.713 0.288s0.288 0.429 0.288 0.713v1.5c0 0.283-0.096 0.521-0.288 0.713s-0.429 0.288-0.713 0.288h-2v1h3v1.5z"></path>
<path fill="#e8eaed" d="M4.030 15c-0.283 0-0.521-0.096-0.712-0.288s-0.288-0.429-0.288-0.713v-1h1.5v0.5h2v-1h-2.5c-0.283 0-0.521-0.096-0.713-0.288s-0.288-0.429-0.288-0.713v-1.5c0-0.283 0.096-0.521 0.288-0.712s0.429-0.288 0.713-0.288h3c0.283 0 0.521 0.096 0.712 0.288s0.288 0.429 0.288 0.712v1h-1.5v-0.5h-2v1h2.5c0.283 0 0.521 0.096 0.712 0.288s0.288 0.429 0.288 0.713v1.5c0 0.283-0.096 0.521-0.288 0.713s-0.429 0.288-0.712 0.288z"></path>
</svg>
