<!-- Generated by IcoMoon.io -->
<svg version="1.1" xmlns="http://www.w3.org/2000/svg" width="32" height="32" viewBox="0 0 32 32">
<path fill="#e8eaed" d="M14.667 20c-0.378 0-0.694-0.128-0.95-0.383s-0.383-0.572-0.383-0.95v-5.333c0-0.378 0.128-0.694 0.383-0.95s0.572-0.383 0.95-0.383h4c0.378 0 0.694 0.128 0.95 0.383s0.383 0.572 0.383 0.95v5.333c0 0.378-0.128 0.694-0.383 0.95s-0.572 0.383-0.95 0.383zM15.333 18h2.667v-4h-2.667zM22.667 24v-3.333c0-0.378 0.128-0.694 0.383-0.95s0.572-0.383 0.95-0.383h2.667v-1.333h-4v-2h4.667c0.378 0 0.694 0.128 0.95 0.383s0.383 0.572 0.383 0.95v2c0 0.378-0.128 0.694-0.383 0.95s-0.572 0.383-0.95 0.383h-2.667v1.333h4v2z"></path>
<path fill="#e8eaed" d="M5.373 20c-0.378 0-0.694-0.128-0.95-0.383s-0.383-0.572-0.383-0.95v-1.333h2v0.667h2.667v-1.333h-3.333c-0.378 0-0.694-0.128-0.95-0.383s-0.383-0.572-0.383-0.95v-2c0-0.378 0.128-0.694 0.383-0.95s0.572-0.383 0.95-0.383h4c0.378 0 0.694 0.128 0.95 0.383s0.383 0.572 0.383 0.95v1.333h-2v-0.667h-2.667v1.333h3.333c0.378 0 0.694 0.128 0.95 0.383s0.383 0.572 0.383 0.95v2c0 0.378-0.128 0.694-0.383 0.95s-0.572 0.383-0.95 0.383z"></path>
</svg>
