<!-- Generated by IcoMoon.io -->
<svg version="1.1" xmlns="http://www.w3.org/2000/svg" width="32" height="32" viewBox="0 0 32 32">
<path d="M15.621 9.333c-1.473 0-2.667 1.194-2.667 2.667v8c0 1.473 1.194 2.667 2.667 2.667h2.667c1.473 0 2.667-1.194 2.667-2.667v-8c0-1.473-1.194-2.667-2.667-2.667h-2.667zM15.621 12h2.667v8h-2.667v-8zM22.287 14v2h4v2h-2c-1.105 0-2 0.895-2 2v4h6v-2h-4v-2h2c1.105 0 2-0.895 2-2v-2c0-1.105-0.895-2-2-2z"></path>
<path d="M6.379 9.333c-1.473 0-2.667 1.194-2.667 2.667v0 2.667c0 1.473 1.194 2.667 2.667 2.667v0h2.667v2.667h-5.333v2.667h5.333c1.473 0 2.667-1.194 2.667-2.667v0-2.667c0-1.473-1.194-2.667-2.667-2.667v0h-2.667v-2.667h5.333v-2.667z"></path>
</svg>
